<svg xmlns="http://www.w3.org/2000/svg" xmlns:xlink="http://www.w3.org/1999/xlink" fill="none" version="1.1" width="164.827392578125" height="173.4365234375" viewBox="0 0 164.827392578125 173.4365234375"><path d="M110.6625366171875,35.611694Q119.0825195171875,19.97168,129.5125121171875,5.5717163C131.7625121171875,2.461731,134.13250711718752,0.081726074,137.9324951171875,0.0017089844C143.7625121171875,-0.11828613,147.6725461171875,6.0316772,144.2525021171875,11.101685Q133.5025021171875,27.021729,122.2825321171875,41.591736C119.5025024171875,45.201721,114.3125000171875,46.331726,111.3024902171875,42.621704C109.7125244171875,40.671692,109.4425048871875,37.891724,110.6625366171875,35.611694Z" fill="#FAFAFA" fill-opacity="1"/><path d="M103.6525881484375,0.9914550824999999C108.0625611484375,2.3814697125,109.5725711484375,6.7814331125,108.1525881484375,11.0714723125Q105.6325681484375,18.6914673125,101.2025761484375,31.5814823125Q97.9725951484375,40.9714353125,91.6225585484375,38.9714353125Q85.2825927484375,36.9614873125,88.0525512684375,27.4214473125Q91.8425903484375,14.3214723125,94.1726074484375,6.6414795125C95.4826049484375,2.3214722125,99.2425541484375,-0.4085082874999999,103.6525881484375,0.9914550824999999Z" fill="#FAFAFA" fill-opacity="1"/><path d="M164.3225706484375,35.50170903125C165.9325566484375,39.72167973125,163.4925536484375,42.401733031250004,159.8225706484375,44.59173603125Q153.1825566484375,48.55169703125,138.0426026484375,58.52172803125C132.4725952484375,62.18170203125,125.2025756484375,58.161682031249995,127.8625488284375,51.121704031250005C128.5325927484375,49.35168503125,130.4525756484375,48.011719031249996,132.0725708484375,46.77172803125Q144.3525996484375,37.37170413125,152.2225956484375,32.64172363125C156.4025876484375,30.12170410125,162.2125856484375,29.97167969125,164.3225706484375,35.50170903125Z" fill="#FAFAFA" fill-opacity="1"/><path d="M120.1076,69.53546184375C139.97058,96.18365484374999,131.59833,136.02893084375,101.40759,158.53247484374998C71.216858,181.03588484375,30.64032,177.67590484375,10.777405,151.02771484375C-9.0856323,124.37951684375,-0.71331787,84.53417984375,29.477417,62.03070084375C59.668091,39.527221643749996,100.24457,42.88726804375,120.1076,69.53546184375ZM85.15271,83.63030984375C77.882935,82.40093984375,70.610718,89.55755584375001,68.909546,99.61517284375C67.208435,109.67303484375,71.722656,118.82330284375,78.99231,120.05285684375C86.262085,121.28240984375,93.534424,114.12573284375,95.235535,104.06799284375C96.936646,94.01019284374999,92.422424,84.85998584375,85.15271,83.63030984375ZM52.731506,84.95220984375C45.499573,83.87145984375,38.428589,91.08068884375001,36.937927,101.05456584375C35.447327,111.02850384375,40.101562,119.99017284375,47.333496,121.07098384375C54.565491,122.15185584375,61.636597,114.94256584375,63.127136,104.96856684375C64.617798,94.99468984375,59.963501,86.03308084375,52.731506,84.95220984375Z" fill="#FAFAFA" fill-opacity="1"/></svg>